Coordinates
version=1
nRows=11
nColumns=40
inDegrees=yes

Units are S.I. units (second, meters, Newtons, ...)
Angles are in degrees.

endheader
time	pelvis_tilt	pelvis_list	pelvis_rotation	pelvis_tx	pelvis_ty	pelvis_tz	hip_flexion_r	hip_adduction_r	hip_rotation_r	knee_angle_r	knee_angle_r_beta	ankle_angle_r	subtalar_angle_r	mtp_angle_r	hip_flexion_l	hip_adduction_l	hip_rotation_l	knee_angle_l	knee_angle_l_beta	ankle_angle_l	subtalar_angle_l	mtp_angle_l	lumbar_extension	lumbar_bending	lumbar_rotation	arm_flex_r	arm_add_r	arm_rot_r	elbow_flex_r	pro_sup_r	wrist_flex_r	wrist_dev_r	arm_flex_l	arm_add_l	arm_rot_l	elbow_flex_l	pro_sup_l	wrist_flex_l	wrist_dev_l
     20.59000000	     -3.10716046	     -5.18966185	     -4.03612714	      1.07865845	      0.92670218	      0.47613833	     17.84557495	      1.91000768	    -11.34030312	     20.56986702	     20.56986702	      6.93074522	     -2.74005266	     -2.61700022	      3.12335807	    -12.09107401	    -11.71465052	     33.26731036	     33.26731036	     13.87022472	    -11.08276601	    -10.29520885	     -9.16995860	      5.06479438	      1.62531702	      0.87103810	    -14.18609442	     -3.26080645	     41.45259761	     45.74468049	      0.00000000	      0.00000000	      8.17475132	    -11.25111429	     -8.71011143	     44.54836439	     47.26945716	      0.00000000	      0.00000000
     20.60371429	     -3.05672324	     -5.24043292	     -3.67737343	      1.07946938	      0.92693496	      0.47919333	     17.29858483	      2.05028315	    -11.77393710	     20.54681494	     20.54681494	      7.38994150	     -2.55392441	     -2.84086655	      4.91492554	    -12.78107328	    -10.55252601	     37.05179512	     37.05179512	     12.19482878	    -12.53981547	    -11.03178168	     -9.16204107	      5.21322306	      1.51595609	      1.98160146	    -14.43753119	     -3.11817866	     42.88888872	     45.68755371	      0.00000000	      0.00000000	      7.48006376	    -11.28790548	     -8.93311681	     43.24509212	     47.25024108	      0.00000000	      0.00000000
     20.61742857	     -3.04956452	     -5.34201236	     -3.29120642	      1.07988515	      0.92704579	      0.48204597	     16.77441405	      2.24107451	    -12.26366028	     20.43222195	     20.43222195	      7.76324159	     -2.30108279	     -3.02620714	      6.93388949	    -13.44110174	     -9.20913096	     40.96050911	     40.96050911	     10.40288562	    -13.93221140	    -11.25300671	     -9.18962179	      5.42758404	      1.56845434	      3.04540466	    -14.78362242	     -3.00478944	     44.24860698	     45.63618636	      0.00000000	      0.00000000	      6.92041516	    -11.25966840	     -9.10271164	     41.99498925	     47.23748953	      0.00000000	      0.00000000
     20.63114286	     -2.94884812	     -5.37582817	     -2.88756996	      1.08000714	      0.92711653	      0.48461885	     16.24965431	      2.30670379	    -12.80360755	     20.48547052	     20.48547052	      8.20975716	     -1.97418170	     -3.35421060	      8.97977708	    -13.85764302	     -7.66990891	     44.89550807	     44.89550807	      8.75458032	    -15.30880835	    -10.51232914	     -9.34322363	      5.57361762	      2.07115377	      3.18778425	    -15.81805311	     -1.79173344	     47.86847901	     45.44517038	      0.00000000	      0.00000000	      7.48109491	    -10.85259460	     -9.96962946	     38.86941909	     47.24967877	      0.00000000	      0.00000000
     20.64485714	     -2.92664679	     -5.45708267	     -2.45934332	      1.07977784	      0.92702638	      0.48709999	     15.81646831	      2.47634515	    -13.18950739	     20.48443530	     20.48443530	      8.60745032	     -2.00322054	     -3.49027008	     11.19366626	    -14.28814863	     -6.18184964	     48.72474315	     48.72474315	      7.12060518	    -16.22052027	     -9.76569915	     -9.43518276	      5.73788958	      2.01930592	      4.57677991	    -16.14325703	     -1.86501708	     49.07586935	     45.41360887	      0.00000000	      0.00000000	      6.89631299	    -10.94545243	    -10.03832076	     37.92788077	     47.23071129	      0.00000000	      0.00000000
     20.65857143	     -2.87528919	     -5.42689529	     -1.99158894	      1.07926592	      0.92693678	      0.48917161	     15.46075696	      2.46703359	    -13.61432440	     20.65773077	     20.65773077	      9.04485522	     -1.98862963	     -3.61111985	     13.52862121	    -14.34934217	     -4.48241044	     52.60301267	     52.60301267	      7.09770651	    -16.34312087	     -5.00998810	     -9.59727148	      5.81305535	      2.27076369	      5.21978298	    -17.04099985	     -0.96672362	     52.04274581	     45.27891959	      0.00000000	      0.00000000	      7.12207892	    -10.74369840	    -10.45690723	     35.44452422	     47.21068370	      0.00000000	      0.00000000
     20.67228571	     -2.80611091	     -5.54312014	     -1.56110280	      1.07849532	      0.92689158	      0.49132411	     15.03460023	      2.68071292	    -13.89112288	     20.67353383	     20.67353383	      9.37815887	     -2.12111191	     -3.68180455	     15.63006172	    -14.61054814	     -3.08467859	     55.74325829	     55.74325829	      5.70603442	    -16.85689077	     -4.39578609	     -9.82016325	      6.00780803	      2.46318691	      6.68047927	    -17.50940430	     -1.15706500	     52.90282695	     45.26590553	      0.00000000	      0.00000000	      6.69081996	    -10.77867649	    -10.47612761	     34.90107716	     47.19741803	      0.00000000	      0.00000000
     20.68600000	     -2.79723818	     -5.54822883	     -1.09676363	      1.07746603	      0.92682570	      0.49315544	     14.71672345	      2.76041184	    -14.15346627	     20.72407246	     20.72407246	      9.71983480	     -2.36958885	     -3.73345981	     17.75202966	    -14.60796534	     -1.71612755	     58.44789409	     58.44789409	      4.67092622	    -17.31060166	     -3.38158597	     -9.98886746	      6.09420048	      2.51512166	      8.23954929	    -17.93353540	     -1.26922869	     54.03336691	     45.24027070	      0.00000000	      0.00000000	      6.26469990	    -10.85627971	    -10.48665354	     34.19473268	     47.18359812	      0.00000000	      0.00000000
     20.69971429	     -2.88171134	     -5.37471961	     -0.63618179	      1.07621142	      0.92676407	      0.49472204	     14.58229461	      2.63778838	    -14.28512858	     20.90242018	     20.90242018	     10.15951107	     -2.69943171	     -3.50456951	     20.13344464	    -14.20640269	     -0.32296923	     61.19310147	     61.19310147	      6.53128293	    -16.64876108	      4.27322534	    -10.06189764	      5.98270762	      2.66360495	      8.95105507	    -18.97641288	      0.08729777	     57.36142311	     45.09164609	      0.00000000	      0.00000000	      6.53281134	    -10.80048607	    -10.84552145	     31.72597987	     47.16460706	      0.00000000	      0.00000000
     20.71342857	     -2.83718672	     -5.31325943	     -0.20981514	      1.07493285	      0.92699944	      0.49635346	     14.18359958	      2.67002806	    -14.46759539	     20.82729816	     20.82729816	     10.41061092	     -2.89857559	     -3.50617708	     21.92708299	    -14.06866922	      0.62997186	     62.72817978	     62.72817978	      5.92652761	    -16.98439277	      4.49670625	    -10.26919036	      5.90731254	      2.93034155	     10.54083508	    -19.43138648	     -0.18615985	     58.12479655	     45.08614976	      0.00000000	      0.00000000	      6.15225619	    -10.80121323	    -10.85928120	     31.39132862	     47.15459783	      0.00000000	      0.00000000
     20.72714286	     -2.92377912	     -5.12107932	      0.24412922	      1.07353578	      0.92724079	      0.49767657	     13.95423295	      2.56973270	    -14.52667753	     20.77988811	     20.77988811	     10.72236570	     -3.37357606	     -3.38683202	     23.76796713	    -13.72265341	      1.39781070	     63.73201012	     63.73201012	      6.08345306	    -17.27391709	      6.13851573	    -10.36963028	      5.80493780	      2.62667531	     12.12913748	    -19.63789610	     -0.00615102	     59.91765573	     45.03532267	      0.00000000	      0.00000000	      5.59067991	    -10.98379164	    -11.00624648	     30.55809904	     47.14151916	      0.00000000	      0.00000000
